<mxfile host="app.diagrams.net" agent="Mozilla/5.0 (Windows NT 10.0; Win64; x64; rv:132.0) Gecko/20100101 Firefox/132.0" version="24.8.4">
  <diagram name="Page-1" id="mhwZSKfggDGHGg47r7Fk">
    <mxGraphModel dx="1050" dy="503" grid="1" gridSize="10" guides="1" tooltips="1" connect="1" arrows="1" fold="1" page="1" pageScale="1" pageWidth="1100" pageHeight="850" math="0" shadow="0">
      <root>
        <mxCell id="0" />
        <mxCell id="1" parent="0" />
        <mxCell id="Zfc1r-9YdI5IpsPKnbFw-1" value="&lt;div&gt;&lt;font style=&quot;font-size: 27px;&quot;&gt;Problem&lt;/font&gt;&lt;/div&gt;&lt;div&gt;&lt;span style=&quot;font-size:12.0pt;line-height:107%;&lt;br/&gt;font-family:&amp;quot;Times New Roman&amp;quot;,serif&quot; lang=&quot;EN-US&quot;&gt;Customers product was delivered late&lt;/span&gt;&lt;br&gt;&lt;/div&gt;" style="rounded=0;whiteSpace=wrap;html=1;fillColor=#dae8fc;strokeColor=#6c8ebf;" vertex="1" parent="1">
          <mxGeometry x="290" y="50" width="500" height="70" as="geometry" />
        </mxCell>
        <mxCell id="Zfc1r-9YdI5IpsPKnbFw-4" value="&lt;p class=&quot;MsoNormal&quot;&gt;&lt;span style=&quot;font-size:12.0pt;line-height:107%;&lt;br/&gt;font-family:&amp;quot;Times New Roman&amp;quot;,serif&quot; lang=&quot;EN-US&quot;&gt;The business team had to&lt;br/&gt;reach out to the customer to confirm details of the order&lt;/span&gt;&lt;/p&gt;&lt;br/&gt;&lt;div&gt;&lt;br/&gt;&lt;/div&gt;" style="rounded=0;whiteSpace=wrap;html=1;" vertex="1" parent="1">
          <mxGeometry x="290" y="190" width="500" height="70" as="geometry" />
        </mxCell>
        <mxCell id="Zfc1r-9YdI5IpsPKnbFw-5" value="" style="shape=flexArrow;endArrow=classic;html=1;rounded=0;exitX=0.518;exitY=1.043;exitDx=0;exitDy=0;exitPerimeter=0;width=58;" edge="1" parent="1">
          <mxGeometry width="50" height="50" relative="1" as="geometry">
            <mxPoint x="538" y="260.01" as="sourcePoint" />
            <mxPoint x="539" y="331" as="targetPoint" />
            <Array as="points" />
          </mxGeometry>
        </mxCell>
        <mxCell id="Zfc1r-9YdI5IpsPKnbFw-6" value="&lt;font style=&quot;font-size: 16px;&quot;&gt;Why?&lt;/font&gt;" style="edgeLabel;html=1;align=center;verticalAlign=middle;resizable=0;points=[];" vertex="1" connectable="0" parent="Zfc1r-9YdI5IpsPKnbFw-5">
          <mxGeometry x="-0.2719" y="-10" relative="1" as="geometry">
            <mxPoint x="10" as="offset" />
          </mxGeometry>
        </mxCell>
        <mxCell id="Zfc1r-9YdI5IpsPKnbFw-7" value="" style="shape=flexArrow;endArrow=classic;html=1;rounded=0;exitX=0.518;exitY=1.043;exitDx=0;exitDy=0;exitPerimeter=0;width=58;" edge="1" parent="1">
          <mxGeometry width="50" height="50" relative="1" as="geometry">
            <mxPoint x="538" y="400.01" as="sourcePoint" />
            <mxPoint x="539" y="471" as="targetPoint" />
            <Array as="points" />
          </mxGeometry>
        </mxCell>
        <mxCell id="Zfc1r-9YdI5IpsPKnbFw-8" value="Why?" style="edgeLabel;html=1;align=center;verticalAlign=middle;resizable=0;points=[];" vertex="1" connectable="0" parent="Zfc1r-9YdI5IpsPKnbFw-7">
          <mxGeometry x="-0.2719" y="-10" relative="1" as="geometry">
            <mxPoint x="10" as="offset" />
          </mxGeometry>
        </mxCell>
        <mxCell id="Zfc1r-9YdI5IpsPKnbFw-12" value="&lt;font style=&quot;font-size: 16px;&quot;&gt;Why&lt;/font&gt;" style="edgeLabel;html=1;align=center;verticalAlign=middle;resizable=0;points=[];" vertex="1" connectable="0" parent="Zfc1r-9YdI5IpsPKnbFw-7">
          <mxGeometry x="-0.2683" y="-1" relative="1" as="geometry">
            <mxPoint as="offset" />
          </mxGeometry>
        </mxCell>
        <mxCell id="Zfc1r-9YdI5IpsPKnbFw-9" value="&lt;p class=&quot;MsoNormal&quot;&gt;&lt;span style=&quot;font-size:12.0pt;line-height:107%;&lt;br/&gt;font-family:&amp;quot;Times New Roman&amp;quot;,serif&quot; lang=&quot;EN-US&quot;&gt;Because of the errors and omissions in the order regarding technical specifications for the product&lt;br&gt;&lt;/span&gt;&lt;/p&gt;&lt;br/&gt;&lt;div&gt;&lt;br/&gt;&lt;/div&gt;" style="rounded=0;whiteSpace=wrap;html=1;" vertex="1" parent="1">
          <mxGeometry x="290" y="330" width="500" height="70" as="geometry" />
        </mxCell>
        <mxCell id="Zfc1r-9YdI5IpsPKnbFw-13" value="&lt;font style=&quot;font-size: 16px;&quot;&gt;Lack of complete information regarding products that are developed by ElectraTech&lt;/font&gt; " style="rounded=0;whiteSpace=wrap;html=1;" vertex="1" parent="1">
          <mxGeometry x="290" y="470" width="500" height="70" as="geometry" />
        </mxCell>
        <mxCell id="Zfc1r-9YdI5IpsPKnbFw-14" value="" style="shape=flexArrow;endArrow=classic;html=1;rounded=0;exitX=0.518;exitY=1.043;exitDx=0;exitDy=0;exitPerimeter=0;width=58;" edge="1" parent="1">
          <mxGeometry width="50" height="50" relative="1" as="geometry">
            <mxPoint x="538" y="540.01" as="sourcePoint" />
            <mxPoint x="539" y="611" as="targetPoint" />
            <Array as="points" />
          </mxGeometry>
        </mxCell>
        <mxCell id="Zfc1r-9YdI5IpsPKnbFw-15" value="Why?" style="edgeLabel;html=1;align=center;verticalAlign=middle;resizable=0;points=[];" vertex="1" connectable="0" parent="Zfc1r-9YdI5IpsPKnbFw-14">
          <mxGeometry x="-0.2719" y="-10" relative="1" as="geometry">
            <mxPoint x="10" as="offset" />
          </mxGeometry>
        </mxCell>
        <mxCell id="Zfc1r-9YdI5IpsPKnbFw-16" value="&lt;font style=&quot;font-size: 16px;&quot;&gt;Why&lt;/font&gt;" style="edgeLabel;html=1;align=center;verticalAlign=middle;resizable=0;points=[];" vertex="1" connectable="0" parent="Zfc1r-9YdI5IpsPKnbFw-14">
          <mxGeometry x="-0.2683" y="-1" relative="1" as="geometry">
            <mxPoint as="offset" />
          </mxGeometry>
        </mxCell>
        <mxCell id="Zfc1r-9YdI5IpsPKnbFw-21" value="" style="shape=flexArrow;endArrow=classic;html=1;rounded=0;exitX=0.518;exitY=1.043;exitDx=0;exitDy=0;exitPerimeter=0;width=58;" edge="1" parent="1">
          <mxGeometry width="50" height="50" relative="1" as="geometry">
            <mxPoint x="539.5" y="120" as="sourcePoint" />
            <mxPoint x="540.5" y="190.99" as="targetPoint" />
            <Array as="points" />
          </mxGeometry>
        </mxCell>
        <mxCell id="Zfc1r-9YdI5IpsPKnbFw-22" value="&lt;font style=&quot;font-size: 16px;&quot;&gt;Why?&lt;/font&gt;" style="edgeLabel;html=1;align=center;verticalAlign=middle;resizable=0;points=[];" vertex="1" connectable="0" parent="Zfc1r-9YdI5IpsPKnbFw-21">
          <mxGeometry x="-0.2719" y="-10" relative="1" as="geometry">
            <mxPoint x="10" as="offset" />
          </mxGeometry>
        </mxCell>
        <mxCell id="Zfc1r-9YdI5IpsPKnbFw-23" value="&lt;font style=&quot;font-size: 16px;&quot;&gt;Lack of online product catalog that is updated based on the product on offer by the production unit&lt;br&gt;&lt;/font&gt;" style="rounded=0;whiteSpace=wrap;html=1;" vertex="1" parent="1">
          <mxGeometry x="290" y="610" width="500" height="70" as="geometry" />
        </mxCell>
        <mxCell id="Zfc1r-9YdI5IpsPKnbFw-24" value="" style="shape=flexArrow;endArrow=classic;html=1;rounded=0;exitX=0.518;exitY=1.043;exitDx=0;exitDy=0;exitPerimeter=0;width=58;" edge="1" parent="1">
          <mxGeometry width="50" height="50" relative="1" as="geometry">
            <mxPoint x="538" y="680.01" as="sourcePoint" />
            <mxPoint x="539" y="751" as="targetPoint" />
            <Array as="points" />
          </mxGeometry>
        </mxCell>
        <mxCell id="Zfc1r-9YdI5IpsPKnbFw-25" value="Why?" style="edgeLabel;html=1;align=center;verticalAlign=middle;resizable=0;points=[];" vertex="1" connectable="0" parent="Zfc1r-9YdI5IpsPKnbFw-24">
          <mxGeometry x="-0.2719" y="-10" relative="1" as="geometry">
            <mxPoint x="10" as="offset" />
          </mxGeometry>
        </mxCell>
        <mxCell id="Zfc1r-9YdI5IpsPKnbFw-26" value="&lt;font style=&quot;font-size: 16px;&quot;&gt;Why&lt;/font&gt;" style="edgeLabel;html=1;align=center;verticalAlign=middle;resizable=0;points=[];" vertex="1" connectable="0" parent="Zfc1r-9YdI5IpsPKnbFw-24">
          <mxGeometry x="-0.2683" y="-1" relative="1" as="geometry">
            <mxPoint as="offset" />
          </mxGeometry>
        </mxCell>
        <mxCell id="Zfc1r-9YdI5IpsPKnbFw-27" value="&lt;font style=&quot;font-size: 16px;&quot;&gt;Lack of an integrated Enterprise solution automating all aspects of ElectraTech&lt;br&gt;&lt;/font&gt;" style="rounded=0;whiteSpace=wrap;html=1;fillColor=#f8cecc;strokeColor=#b85450;" vertex="1" parent="1">
          <mxGeometry x="290" y="750" width="500" height="70" as="geometry" />
        </mxCell>
        <mxCell id="Zfc1r-9YdI5IpsPKnbFw-28" value="5 Whys Root Cause Analysis" style="swimlane;whiteSpace=wrap;html=1;" vertex="1" parent="1">
          <mxGeometry x="210" y="20" width="650" height="820" as="geometry" />
        </mxCell>
      </root>
    </mxGraphModel>
  </diagram>
</mxfile>
